<svg width="1057" height="512" viewBox="0 0 1057 512" fill="none" xmlns="http://www.w3.org/2000/svg">
<g clip-path="url(#clip0_81_206)">
<path d="M394.675 244.883C394.675 250.219 393.451 255.118 391.001 259.579C388.552 263.953 384.79 267.497 379.716 270.208C374.642 272.92 368.343 274.276 360.82 274.276H346.91V307.345H324.47V215.226H360.82C368.168 215.226 374.379 216.494 379.454 219.031C384.527 221.568 388.333 225.068 390.87 229.529C393.407 233.991 394.675 239.109 394.675 244.883ZM359.114 256.43C363.4 256.43 366.593 255.424 368.693 253.412C370.793 251.4 371.843 248.556 371.843 244.883C371.843 241.208 370.793 238.365 368.693 236.353C366.593 234.341 363.4 233.335 359.114 233.335H346.91V256.43H359.114ZM400.583 270.602C400.583 263.079 401.983 256.474 404.782 250.787C407.669 245.101 411.563 240.727 416.462 237.665C421.36 234.603 426.828 233.072 432.865 233.072C438.026 233.072 442.531 234.122 446.381 236.222C450.317 238.321 453.335 241.077 455.435 244.489V234.122H477.874V307.345H455.435V296.978C453.248 300.39 450.186 303.145 446.249 305.245C442.4 307.345 437.895 308.395 432.733 308.395C426.785 308.395 421.36 306.864 416.462 303.802C411.563 300.653 407.669 296.235 404.782 290.548C401.983 284.774 400.583 278.126 400.583 270.602ZM455.435 270.733C455.435 265.134 453.86 260.716 450.711 257.48C447.649 254.243 443.887 252.625 439.425 252.625C434.964 252.625 431.159 254.243 428.009 257.48C424.947 260.629 423.417 265.003 423.417 270.602C423.417 276.201 424.947 280.663 428.009 283.987C431.159 287.224 434.964 288.842 439.425 288.842C443.887 288.842 447.649 287.224 450.711 283.987C453.86 280.75 455.435 276.332 455.435 270.733ZM504.081 226.511C500.144 226.511 496.907 225.374 494.371 223.099C491.921 220.737 490.696 217.85 490.696 214.438C490.696 210.939 491.921 208.052 494.371 205.778C496.907 203.416 500.144 202.235 504.081 202.235C507.93 202.235 511.08 203.416 513.529 205.778C516.066 208.052 517.335 210.939 517.335 214.438C517.335 217.85 516.066 220.737 513.529 223.099C511.08 225.374 507.93 226.511 504.081 226.511ZM515.235 234.122V307.345H492.796V234.122H515.235ZM552.623 246.326C555.248 242.302 558.529 239.152 562.465 236.878C566.402 234.516 570.776 233.335 575.588 233.335V257.086H569.42C563.821 257.086 559.622 258.311 556.823 260.76C554.023 263.123 552.623 267.322 552.623 273.358V307.345H530.184V234.122H552.623V246.326ZM690.109 234.122L670.296 307.345H645.496L633.945 259.842L622.006 307.345H597.336L577.39 234.122H599.829L610.195 286.48L622.532 234.122H646.282L658.75 286.218L668.986 234.122H690.109ZM708.639 226.511C704.707 226.511 701.468 225.374 698.929 223.099C696.481 220.737 695.257 217.85 695.257 214.438C695.257 210.939 696.481 208.052 698.929 205.778C701.468 203.416 704.707 202.235 708.639 202.235C712.489 202.235 715.641 203.416 718.089 205.778C720.628 208.052 721.893 210.939 721.893 214.438C721.893 217.85 720.628 220.737 718.089 223.099C715.641 225.374 712.489 226.511 708.639 226.511ZM719.797 234.122V307.345H697.358V234.122H719.797ZM764.534 308.395C758.144 308.395 752.458 307.301 747.475 305.114C742.487 302.927 738.55 299.952 735.664 296.191C732.777 292.341 731.156 288.055 730.809 283.331H752.983C753.248 285.868 754.426 287.923 756.527 289.498C758.628 291.073 761.209 291.86 764.269 291.86C767.069 291.86 769.211 291.336 770.7 290.286C772.275 289.148 773.061 287.705 773.061 285.955C773.061 283.856 771.969 282.325 769.782 281.363C767.594 280.313 764.05 279.175 759.153 277.951C753.901 276.726 749.53 275.457 746.032 274.145C742.528 272.745 739.514 270.602 736.975 267.715C734.44 264.741 733.17 260.76 733.17 255.774C733.17 251.575 734.307 247.769 736.582 244.357C738.943 240.858 742.355 238.102 746.817 236.09C751.366 234.078 756.746 233.072 762.958 233.072C772.143 233.072 779.359 235.347 784.612 239.896C789.946 244.445 793.006 250.481 793.796 258.005H773.061C772.714 255.468 771.577 253.455 769.649 251.968C767.813 250.481 765.365 249.738 762.3 249.738C759.679 249.738 757.664 250.262 756.267 251.312C754.865 252.275 754.166 253.631 754.166 255.38C754.166 257.48 755.258 259.054 757.445 260.104C759.72 261.154 763.218 262.204 767.945 263.254C773.367 264.653 777.788 266.053 781.2 267.453C784.612 268.765 787.585 270.952 790.12 274.014C792.746 276.988 794.102 281.013 794.189 286.087C794.189 290.373 792.965 294.222 790.513 297.634C788.151 300.959 784.698 303.583 780.149 305.508C775.687 307.432 770.48 308.395 764.534 308.395ZM875.629 269.552C875.629 271.652 875.496 273.839 875.236 276.113H824.452C824.799 280.663 826.243 284.162 828.782 286.611C831.408 288.973 834.601 290.155 838.36 290.155C843.959 290.155 847.851 287.792 850.038 283.068H873.921C872.697 287.88 870.468 292.21 867.23 296.06C864.083 299.909 860.1 302.927 855.291 305.114C850.477 307.301 845.096 308.395 839.15 308.395C831.975 308.395 825.589 306.864 819.99 303.802C814.39 300.74 810.015 296.366 806.868 290.679C803.717 284.993 802.146 278.344 802.146 270.733C802.146 263.123 803.676 256.474 806.736 250.787C809.887 245.101 814.258 240.727 819.858 237.665C825.457 234.603 831.888 233.072 839.15 233.072C846.234 233.072 852.532 234.56 858.045 237.534C863.558 240.508 867.842 244.751 870.906 250.262C874.053 255.774 875.629 262.204 875.629 269.552ZM852.664 263.647C852.664 259.798 851.354 256.736 848.727 254.462C846.101 252.187 842.822 251.05 838.885 251.05C835.126 251.05 831.929 252.143 829.307 254.33C826.768 256.517 825.197 259.623 824.585 263.647H852.664Z" fill="#232323"/>
<g filter="url(#filter0_d_81_206)">
<path d="M257.946 194.293H185.082C183.04 194.293 181.385 195.949 181.385 197.99V293.786C181.385 295.828 183.04 297.483 185.082 297.483H257.946C259.988 297.483 261.643 295.828 261.643 293.786V197.99C261.643 195.949 259.988 194.293 257.946 194.293Z" fill="#B1AFF8"/>
</g>
<g opacity="0.5" filter="url(#filter1_d_81_206)">
<path d="M275.668 214.098H202.804C200.762 214.098 199.107 215.753 199.107 217.795V313.59C199.107 315.632 200.762 317.287 202.804 317.287H275.668C277.71 317.287 279.365 315.632 279.365 313.59V217.795C279.365 215.753 277.71 214.098 275.668 214.098Z" fill="#6A67E7"/>
</g>
</g>
<defs>
<filter id="filter0_d_81_206" x="151.806" y="168.412" width="139.415" height="162.346" filterUnits="userSpaceOnUse" color-interpolation-filters="sRGB">
<feFlood flood-opacity="0" result="BackgroundImageFix"/>
<feColorMatrix in="SourceAlpha" type="matrix" values="0 0 0 0 0 0 0 0 0 0 0 0 0 0 0 0 0 0 127 0" result="hardAlpha"/>
<feOffset dy="3.69728"/>
<feGaussianBlur stdDeviation="14.7891"/>
<feComposite in2="hardAlpha" operator="out"/>
<feColorMatrix type="matrix" values="0 0 0 0 0 0 0 0 0 0 0 0 0 0 0 0 0 0 0.08 0"/>
<feBlend mode="normal" in2="BackgroundImageFix" result="effect1_dropShadow_81_206"/>
<feBlend mode="normal" in="SourceGraphic" in2="effect1_dropShadow_81_206" result="shape"/>
</filter>
<filter id="filter1_d_81_206" x="169.528" y="188.217" width="139.415" height="162.346" filterUnits="userSpaceOnUse" color-interpolation-filters="sRGB">
<feFlood flood-opacity="0" result="BackgroundImageFix"/>
<feColorMatrix in="SourceAlpha" type="matrix" values="0 0 0 0 0 0 0 0 0 0 0 0 0 0 0 0 0 0 127 0" result="hardAlpha"/>
<feOffset dy="3.69728"/>
<feGaussianBlur stdDeviation="14.7891"/>
<feComposite in2="hardAlpha" operator="out"/>
<feColorMatrix type="matrix" values="0 0 0 0 0 0 0 0 0 0 0 0 0 0 0 0 0 0 0.08 0"/>
<feBlend mode="normal" in2="BackgroundImageFix" result="effect1_dropShadow_81_206"/>
<feBlend mode="normal" in="SourceGraphic" in2="effect1_dropShadow_81_206" result="shape"/>
</filter>
<clipPath id="clip0_81_206">
<rect width="695.913" height="125" fill="white" transform="translate(180.543 193.5)"/>
</clipPath>
</defs>
</svg>
