<svg width="513" height="512" viewBox="0 0 513 512" fill="none" xmlns="http://www.w3.org/2000/svg">
<g filter="url(#filter0_d_81_202)">
<rect x="187.874" y="124.443" width="113.664" height="146.14" rx="5.23618" fill="#B1AFF8"/>
</g>
<g opacity="0.5" filter="url(#filter1_d_81_202)">
<rect x="212.965" y="152.491" width="113.664" height="146.14" rx="5.23618" fill="#6A67E7"/>
</g>
<path d="M159.387 357.748C159.387 360.295 158.802 362.633 157.633 364.762C156.464 366.849 154.669 368.54 152.247 369.835C149.826 371.129 146.82 371.776 143.23 371.776H136.591V387.557H125.883V343.595H143.23C146.736 343.595 149.701 344.2 152.122 345.411C154.544 346.622 156.36 348.292 157.57 350.421C158.781 352.55 159.387 354.993 159.387 357.748ZM142.415 363.259C144.461 363.259 145.985 362.779 146.987 361.819C147.989 360.858 148.49 359.502 148.49 357.748C148.49 355.995 147.989 354.638 146.987 353.678C145.985 352.717 144.461 352.237 142.415 352.237H136.591V363.259H142.415ZM162.206 370.022C162.206 366.432 162.874 363.28 164.21 360.566C165.588 357.852 167.446 355.765 169.784 354.304C172.122 352.843 174.731 352.112 177.612 352.112C180.075 352.112 182.225 352.613 184.062 353.615C185.941 354.617 187.381 355.932 188.383 357.56V352.613H199.092V387.557H188.383V382.61C187.339 384.238 185.878 385.553 183.999 386.555C182.162 387.557 180.012 388.058 177.549 388.058C174.71 388.058 172.122 387.328 169.784 385.866C167.446 384.363 165.588 382.255 164.21 379.541C162.874 376.786 162.206 373.613 162.206 370.022ZM188.383 370.085C188.383 367.413 187.631 365.305 186.128 363.76C184.667 362.215 182.872 361.443 180.743 361.443C178.614 361.443 176.797 362.215 175.294 363.76C173.833 365.263 173.103 367.35 173.103 370.022C173.103 372.694 173.833 374.824 175.294 376.41C176.797 377.955 178.614 378.727 180.743 378.727C182.872 378.727 184.667 377.955 186.128 376.41C187.631 374.865 188.383 372.757 188.383 370.085ZM211.598 348.981C209.72 348.981 208.175 348.438 206.964 347.353C205.795 346.225 205.211 344.848 205.211 343.219C205.211 341.549 205.795 340.172 206.964 339.086C208.175 337.959 209.72 337.395 211.598 337.395C213.435 337.395 214.938 337.959 216.107 339.086C217.318 340.172 217.923 341.549 217.923 343.219C217.923 344.848 217.318 346.225 216.107 347.353C214.938 348.438 213.435 348.981 211.598 348.981ZM216.921 352.613V387.557H206.213V352.613H216.921ZM234.764 358.437C236.017 356.517 237.582 355.014 239.461 353.928C241.34 352.801 243.427 352.237 245.723 352.237V363.572H242.78C240.108 363.572 238.104 364.157 236.768 365.326C235.432 366.453 234.764 368.457 234.764 371.338V387.557H224.056V352.613H234.764V358.437ZM300.377 352.613L290.921 387.557H279.085L273.574 364.887L267.876 387.557H256.102L246.584 352.613H257.292L262.24 377.6L268.126 352.613H279.461L285.41 377.475L290.295 352.613H300.377ZM309.221 348.981C307.342 348.981 305.797 348.438 304.587 347.353C303.418 346.225 302.833 344.848 302.833 343.219C302.833 341.549 303.418 340.172 304.587 339.086C305.797 337.959 307.342 337.395 309.221 337.395C311.058 337.395 312.561 337.959 313.73 339.086C314.94 340.172 315.546 341.549 315.546 343.219C315.546 344.848 314.94 346.225 313.73 347.353C312.561 348.438 311.058 348.981 309.221 348.981ZM314.544 352.613V387.557H303.835V352.613H314.544ZM335.894 388.058C332.846 388.058 330.132 387.536 327.752 386.493C325.373 385.449 323.494 384.029 322.116 382.234C320.739 380.397 319.966 378.351 319.799 376.097H330.383C330.508 377.308 331.072 378.289 332.074 379.04C333.076 379.792 334.307 380.168 335.768 380.168C337.104 380.168 338.127 379.917 338.837 379.416C339.588 378.873 339.964 378.184 339.964 377.349C339.964 376.347 339.442 375.617 338.399 375.158C337.355 374.657 335.664 374.114 333.326 373.529C330.821 372.945 328.734 372.34 327.064 371.713C325.394 371.045 323.953 370.022 322.743 368.645C321.532 367.225 320.926 365.326 320.926 362.946C320.926 360.942 321.469 359.126 322.555 357.498C323.682 355.828 325.31 354.513 327.439 353.552C329.61 352.592 332.178 352.112 335.142 352.112C339.526 352.112 342.97 353.197 345.475 355.368C348.022 357.539 349.483 360.42 349.859 364.011H339.964C339.797 362.8 339.254 361.84 338.336 361.13C337.459 360.42 336.29 360.065 334.829 360.065C333.576 360.065 332.616 360.316 331.948 360.817C331.28 361.276 330.946 361.923 330.946 362.758C330.946 363.76 331.468 364.512 332.512 365.013C333.597 365.513 335.267 366.014 337.522 366.515C340.11 367.183 342.219 367.851 343.847 368.519C345.475 369.146 346.895 370.189 348.105 371.651C349.358 373.07 350.005 374.991 350.047 377.412C350.047 379.458 349.462 381.295 348.293 382.923C347.166 384.509 345.517 385.762 343.346 386.68C341.217 387.599 338.733 388.058 335.894 388.058ZM388.912 369.521C388.912 370.523 388.849 371.567 388.724 372.653H364.489C364.656 374.824 365.345 376.494 366.555 377.663C367.808 378.79 369.332 379.353 371.127 379.353C373.799 379.353 375.657 378.226 376.7 375.972H388.098C387.514 378.268 386.449 380.334 384.904 382.171C383.401 384.008 381.502 385.449 379.205 386.493C376.909 387.536 374.342 388.058 371.503 388.058C368.079 388.058 365.032 387.328 362.36 385.866C359.688 384.405 357.6 382.318 356.097 379.604C354.594 376.89 353.843 373.717 353.843 370.085C353.843 366.453 354.573 363.28 356.035 360.566C357.538 357.852 359.625 355.765 362.297 354.304C364.969 352.843 368.037 352.112 371.503 352.112C374.884 352.112 377.89 352.822 380.52 354.241C383.151 355.661 385.196 357.686 386.658 360.316C388.161 362.946 388.912 366.014 388.912 369.521ZM377.953 366.703C377.953 364.866 377.327 363.405 376.074 362.32C374.822 361.234 373.256 360.691 371.377 360.691C369.582 360.691 368.058 361.213 366.806 362.257C365.595 363.301 364.844 364.783 364.551 366.703H377.953Z" fill="#232323"/>
<defs>
<filter id="filter0_d_81_202" x="145.984" y="87.7897" width="197.443" height="229.919" filterUnits="userSpaceOnUse" color-interpolation-filters="sRGB">
<feFlood flood-opacity="0" result="BackgroundImageFix"/>
<feColorMatrix in="SourceAlpha" type="matrix" values="0 0 0 0 0 0 0 0 0 0 0 0 0 0 0 0 0 0 127 0" result="hardAlpha"/>
<feOffset dy="5.23618"/>
<feGaussianBlur stdDeviation="20.9447"/>
<feComposite in2="hardAlpha" operator="out"/>
<feColorMatrix type="matrix" values="0 0 0 0 0 0 0 0 0 0 0 0 0 0 0 0 0 0 0.08 0"/>
<feBlend mode="normal" in2="BackgroundImageFix" result="effect1_dropShadow_81_202"/>
<feBlend mode="normal" in="SourceGraphic" in2="effect1_dropShadow_81_202" result="shape"/>
</filter>
<filter id="filter1_d_81_202" x="171.076" y="115.837" width="197.443" height="229.919" filterUnits="userSpaceOnUse" color-interpolation-filters="sRGB">
<feFlood flood-opacity="0" result="BackgroundImageFix"/>
<feColorMatrix in="SourceAlpha" type="matrix" values="0 0 0 0 0 0 0 0 0 0 0 0 0 0 0 0 0 0 127 0" result="hardAlpha"/>
<feOffset dy="5.23618"/>
<feGaussianBlur stdDeviation="20.9447"/>
<feComposite in2="hardAlpha" operator="out"/>
<feColorMatrix type="matrix" values="0 0 0 0 0 0 0 0 0 0 0 0 0 0 0 0 0 0 0.08 0"/>
<feBlend mode="normal" in2="BackgroundImageFix" result="effect1_dropShadow_81_202"/>
<feBlend mode="normal" in="SourceGraphic" in2="effect1_dropShadow_81_202" result="shape"/>
</filter>
</defs>
</svg>
